<svg viewBox="0 0 256 256" xmlns="http://www.w3.org/2000/svg"><path d="m120 48v64a7.9954 7.9954 0 0 1 -8 8h-64a7.99539 7.99539 0 0 1 -8-8v-64a7.99539 7.99539 0 0 1 8-8h64a7.9954 7.9954 0 0 1 8 8zm88-8h-64a7.99539 7.99539 0 0 0 -8 8v64a7.99539 7.99539 0 0 0 8 8h64a7.9954 7.9954 0 0 0 8-8v-64a7.9954 7.9954 0 0 0 -8-8zm-96 96h-64a7.99539 7.99539 0 0 0 -8 8v64a7.99539 7.99539 0 0 0 8 8h64a7.9954 7.9954 0 0 0 8-8v-64a7.9954 7.9954 0 0 0 -8-8zm96 0h-64a7.99539 7.99539 0 0 0 -8 8v64a7.99539 7.99539 0 0 0 8 8h64a7.9954 7.9954 0 0 0 8-8v-64a7.9954 7.9954 0 0 0 -8-8z"/></svg>